<svg xmlns="http://www.w3.org/2000/svg" viewBox="0 0 96 96" width="96" height="96">
  <defs>
    <linearGradient id="bgGrad" x1="0%" y1="0%" x2="100%" y2="100%">
      <stop offset="0%" style="stop-color:#0D0D12"/>
      <stop offset="100%" style="stop-color:#1A1A24"/>
    </linearGradient>
    <linearGradient id="orangeGrad" x1="0%" y1="0%" x2="100%" y2="100%">
      <stop offset="0%" style="stop-color:#FF6B35"/>
      <stop offset="100%" style="stop-color:#FF8C5A"/>
    </linearGradient>
    <linearGradient id="blueGrad" x1="0%" y1="0%" x2="100%" y2="100%">
      <stop offset="0%" style="stop-color:#00D9FF"/>
      <stop offset="100%" style="stop-color:#00B8E6"/>
    </linearGradient>
  </defs>
  <rect width="96" height="96" rx="18.72" fill="url(#bgGrad)"/>
  <g opacity="0.1" stroke="#00D9FF" stroke-width="0.192">
    <line x1="24" y1="0" x2="24" y2="96"/>
    <line x1="48" y1="0" x2="48" y2="96"/>
    <line x1="72" y1="0" x2="72" y2="96"/>
    <line x1="0" y1="24" x2="96" y2="24"/>
    <line x1="0" y1="48" x2="96" y2="48"/>
    <line x1="0" y1="72" x2="96" y2="72"/>
  </g>
  <rect x="24.384" y="18.72" width="9.408000000000001" height="58.464" rx="1.92" fill="url(#orangeGrad)"/>
  <path d="M 29.088 18.72
           L 52.512 18.72
           Q 71.232 18.72 71.232 37.536
           Q 71.232 56.256 52.512 56.256
           L 29.088 56.256"
        fill="none"
        stroke="url(#orangeGrad)"
        stroke-width="9.408000000000001"
        stroke-linecap="round"
        stroke-linejoin="round"/>
  <circle cx="71.232" cy="71.232" r="5.664" fill="url(#blueGrad)"/>
  <circle cx="71.232" cy="71.232" r="2.7840000000000003" fill="#0D0D12"/>
  <circle cx="71.232" cy="71.232" r="8.448" fill="none" stroke="#00D9FF" stroke-width="0.384" opacity="0.5"/>
  <circle cx="71.232" cy="71.232" r="11.232000000000001" fill="none" stroke="#00D9FF" stroke-width="0.192" opacity="0.3"/>
</svg>