<svg xmlns="http://www.w3.org/2000/svg" viewBox="0 0 72 72" width="72" height="72">
  <defs>
    <linearGradient id="bgGrad" x1="0%" y1="0%" x2="100%" y2="100%">
      <stop offset="0%" style="stop-color:#0D0D12"/>
      <stop offset="100%" style="stop-color:#1A1A24"/>
    </linearGradient>
    <linearGradient id="orangeGrad" x1="0%" y1="0%" x2="100%" y2="100%">
      <stop offset="0%" style="stop-color:#FF6B35"/>
      <stop offset="100%" style="stop-color:#FF8C5A"/>
    </linearGradient>
    <linearGradient id="blueGrad" x1="0%" y1="0%" x2="100%" y2="100%">
      <stop offset="0%" style="stop-color:#00D9FF"/>
      <stop offset="100%" style="stop-color:#00B8E6"/>
    </linearGradient>
  </defs>
  <rect width="72" height="72" rx="14.040000000000001" fill="url(#bgGrad)"/>
  <g opacity="0.1" stroke="#00D9FF" stroke-width="0.14400000000000002">
    <line x1="18" y1="0" x2="18" y2="72"/>
    <line x1="36" y1="0" x2="36" y2="72"/>
    <line x1="54" y1="0" x2="54" y2="72"/>
    <line x1="0" y1="18" x2="72" y2="18"/>
    <line x1="0" y1="36" x2="72" y2="36"/>
    <line x1="0" y1="54" x2="72" y2="54"/>
  </g>
  <rect x="18.288" y="14.040000000000001" width="7.056" height="43.848" rx="1.44" fill="url(#orangeGrad)"/>
  <path d="M 21.816 14.040000000000001
           L 39.384 14.040000000000001
           Q 53.424 14.040000000000001 53.424 28.152
           Q 53.424 42.192 39.384 42.192
           L 21.816 42.192"
        fill="none"
        stroke="url(#orangeGrad)"
        stroke-width="7.056"
        stroke-linecap="round"
        stroke-linejoin="round"/>
  <circle cx="53.424" cy="53.424" r="4.247999999999999" fill="url(#blueGrad)"/>
  <circle cx="53.424" cy="53.424" r="2.088" fill="#0D0D12"/>
  <circle cx="53.424" cy="53.424" r="6.335999999999999" fill="none" stroke="#00D9FF" stroke-width="0.28800000000000003" opacity="0.5"/>
  <circle cx="53.424" cy="53.424" r="8.424000000000001" fill="none" stroke="#00D9FF" stroke-width="0.14400000000000002" opacity="0.3"/>
</svg>