<svg xmlns="http://www.w3.org/2000/svg" viewBox="0 0 152 152" width="152" height="152">
  <defs>
    <linearGradient id="bgGrad" x1="0%" y1="0%" x2="100%" y2="100%">
      <stop offset="0%" style="stop-color:#0D0D12"/>
      <stop offset="100%" style="stop-color:#1A1A24"/>
    </linearGradient>
    <linearGradient id="orangeGrad" x1="0%" y1="0%" x2="100%" y2="100%">
      <stop offset="0%" style="stop-color:#FF6B35"/>
      <stop offset="100%" style="stop-color:#FF8C5A"/>
    </linearGradient>
    <linearGradient id="blueGrad" x1="0%" y1="0%" x2="100%" y2="100%">
      <stop offset="0%" style="stop-color:#00D9FF"/>
      <stop offset="100%" style="stop-color:#00B8E6"/>
    </linearGradient>
  </defs>
  <rect width="152" height="152" rx="29.64" fill="url(#bgGrad)"/>
  <g opacity="0.1" stroke="#00D9FF" stroke-width="0.304">
    <line x1="38" y1="0" x2="38" y2="152"/>
    <line x1="76" y1="0" x2="76" y2="152"/>
    <line x1="114" y1="0" x2="114" y2="152"/>
    <line x1="0" y1="38" x2="152" y2="38"/>
    <line x1="0" y1="76" x2="152" y2="76"/>
    <line x1="0" y1="114" x2="152" y2="114"/>
  </g>
  <rect x="38.608000000000004" y="29.64" width="14.896" height="92.568" rx="3.04" fill="url(#orangeGrad)"/>
  <path d="M 46.056 29.64
           L 83.144 29.64
           Q 112.78399999999999 29.64 112.78399999999999 59.432
           Q 112.78399999999999 89.07199999999999 83.144 89.07199999999999
           L 46.056 89.07199999999999"
        fill="none"
        stroke="url(#orangeGrad)"
        stroke-width="14.896"
        stroke-linecap="round"
        stroke-linejoin="round"/>
  <circle cx="112.78399999999999" cy="112.78399999999999" r="8.968" fill="url(#blueGrad)"/>
  <circle cx="112.78399999999999" cy="112.78399999999999" r="4.408" fill="#0D0D12"/>
  <circle cx="112.78399999999999" cy="112.78399999999999" r="13.376" fill="none" stroke="#00D9FF" stroke-width="0.608" opacity="0.5"/>
  <circle cx="112.78399999999999" cy="112.78399999999999" r="17.784000000000002" fill="none" stroke="#00D9FF" stroke-width="0.304" opacity="0.3"/>
</svg>