<svg xmlns="http://www.w3.org/2000/svg" viewBox="0 0 144 144" width="144" height="144">
  <defs>
    <linearGradient id="bgGrad" x1="0%" y1="0%" x2="100%" y2="100%">
      <stop offset="0%" style="stop-color:#0D0D12"/>
      <stop offset="100%" style="stop-color:#1A1A24"/>
    </linearGradient>
    <linearGradient id="orangeGrad" x1="0%" y1="0%" x2="100%" y2="100%">
      <stop offset="0%" style="stop-color:#FF6B35"/>
      <stop offset="100%" style="stop-color:#FF8C5A"/>
    </linearGradient>
    <linearGradient id="blueGrad" x1="0%" y1="0%" x2="100%" y2="100%">
      <stop offset="0%" style="stop-color:#00D9FF"/>
      <stop offset="100%" style="stop-color:#00B8E6"/>
    </linearGradient>
  </defs>
  <rect width="144" height="144" rx="28.080000000000002" fill="url(#bgGrad)"/>
  <g opacity="0.1" stroke="#00D9FF" stroke-width="0.28800000000000003">
    <line x1="36" y1="0" x2="36" y2="144"/>
    <line x1="72" y1="0" x2="72" y2="144"/>
    <line x1="108" y1="0" x2="108" y2="144"/>
    <line x1="0" y1="36" x2="144" y2="36"/>
    <line x1="0" y1="72" x2="144" y2="72"/>
    <line x1="0" y1="108" x2="144" y2="108"/>
  </g>
  <rect x="36.576" y="28.080000000000002" width="14.112" height="87.696" rx="2.88" fill="url(#orangeGrad)"/>
  <path d="M 43.632 28.080000000000002
           L 78.768 28.080000000000002
           Q 106.848 28.080000000000002 106.848 56.304
           Q 106.848 84.384 78.768 84.384
           L 43.632 84.384"
        fill="none"
        stroke="url(#orangeGrad)"
        stroke-width="14.112"
        stroke-linecap="round"
        stroke-linejoin="round"/>
  <circle cx="106.848" cy="106.848" r="8.495999999999999" fill="url(#blueGrad)"/>
  <circle cx="106.848" cy="106.848" r="4.176" fill="#0D0D12"/>
  <circle cx="106.848" cy="106.848" r="12.671999999999999" fill="none" stroke="#00D9FF" stroke-width="0.5760000000000001" opacity="0.5"/>
  <circle cx="106.848" cy="106.848" r="16.848000000000003" fill="none" stroke="#00D9FF" stroke-width="0.28800000000000003" opacity="0.3"/>
</svg>